HIERARCHY
ROOT Hips
{
	OFFSET 0.00000 0.00000 0.00000
	CHANNELS 6 Xposition Yposition Zposition Zrotation Yrotation Xrotation 
	JOINT LHipJoint
	{
		OFFSET 0 0 0
		CHANNELS 3 Zrotation Yrotation Xrotation
		JOINT LeftUpLeg
		{
			OFFSET 1.38691 -1.89057 0.78360
			CHANNELS 3 Zrotation Yrotation Xrotation
			JOINT LeftLeg
			{
				OFFSET 2.59731 -7.13606 0.00000
				CHANNELS 3 Zrotation Yrotation Xrotation
				JOINT LeftFoot
				{
					OFFSET 2.70078 -7.42033 0.00000
					CHANNELS 3 Zrotation Yrotation Xrotation
					JOINT LeftToeBase
					{
						OFFSET 0.16751 -0.46024 2.68862
						CHANNELS 3 Zrotation Yrotation Xrotation
						End Site
						{
							OFFSET 0.00000 -0.00000 1.37057
						}
					}
				}
			}
		}
	}
	JOINT RHipJoint
	{
		OFFSET 0 0 0
		CHANNELS 3 Zrotation Yrotation Xrotation
		JOINT RightUpLeg
		{
			OFFSET -1.38190 -1.89056 0.78359
			CHANNELS 3 Zrotation Yrotation Xrotation
			JOINT RightLeg
			{
				OFFSET -2.57785 -7.08258 0.00000
				CHANNELS 3 Zrotation Yrotation Xrotation
				JOINT RightFoot
				{
					OFFSET -2.77908 -7.63547 0.00000
					CHANNELS 3 Zrotation Yrotation Xrotation
					JOINT RightToeBase
					{
						OFFSET -0.17921 -0.49237 2.62360
						CHANNELS 3 Zrotation Yrotation Xrotation
						End Site
						{
							OFFSET -0.00000 -0.00000 1.34085
						}
					}
				}
			}
		}
	}
	JOINT LowerBack
	{
		OFFSET 0 0 0
		CHANNELS 3 Zrotation Yrotation Xrotation
		JOINT Spine
		{
			OFFSET -0.10749 2.04110 -0.22549
			CHANNELS 3 Zrotation Yrotation Xrotation
			JOINT Spine1
			{
				OFFSET 0.01213 2.05840 0.00691
				CHANNELS 3 Zrotation Yrotation Xrotation
				JOINT Neck
				{
					OFFSET 0 0 0
					CHANNELS 3 Zrotation Yrotation Xrotation
					JOINT Neck1
					{
						OFFSET 0.06585 1.81215 0.35449
						CHANNELS 3 Zrotation Yrotation Xrotation
						JOINT Head
						{
							OFFSET -0.04315 1.87555 -0.27307
							CHANNELS 3 Zrotation Yrotation Xrotation
							End Site
							{
								OFFSET -0.01775 1.89740 -0.13294
							}
						}
					}
				}
				JOINT LeftShoulder
				{
					OFFSET 0 0 0
					CHANNELS 3 Zrotation Yrotation Xrotation
					JOINT LeftArm
					{
						OFFSET 2.98012 1.63606 0.28888
						CHANNELS 3 Zrotation Yrotation Xrotation
						JOINT LeftForeArm
						{
							OFFSET 5.59864 -0.00000 -0.00000
							CHANNELS 3 Zrotation Yrotation Xrotation
							JOINT LeftHand
							{
								OFFSET 3.59542 -0.00000 -0.00000
								CHANNELS 3 Zrotation Yrotation Xrotation
								JOINT LeftFingerBase
								{
									OFFSET 0 0 0
									CHANNELS 3 Zrotation Yrotation Xrotation
									JOINT LeftHandIndex1
									{
										OFFSET 0.57201 -0.00000 -0.00000
										CHANNELS 3 Zrotation Yrotation Xrotation
										End Site
										{
											OFFSET 0.46117 -0.00000 -0.00000
										}
									}
								}
								JOINT LThumb
								{
									OFFSET 0 0 0
									CHANNELS 3 Zrotation Yrotation Xrotation
									End Site
									{
										OFFSET 0.46821 -0.00000 0.46821
									}
								}
							}
						}
					}
				}
				JOINT RightShoulder
				{
					OFFSET 0 0 0
					CHANNELS 3 Zrotation Yrotation Xrotation
					JOINT RightArm
					{
						OFFSET -3.08694 1.53706 0.36335
						CHANNELS 3 Zrotation Yrotation Xrotation
						JOINT RightForeArm
						{
							OFFSET -5.80940 -0.00000 -0.00000
							CHANNELS 3 Zrotation Yrotation Xrotation
							JOINT RightHand
							{
								OFFSET -3.66953 -0.00000 -0.00000
								CHANNELS 3 Zrotation Yrotation Xrotation
								JOINT RightFingerBase
								{
									OFFSET 0 0 0
									CHANNELS 3 Zrotation Yrotation Xrotation
									JOINT RightHandIndex1
									{
										OFFSET -0.57843 -0.00000 -0.00000
										CHANNELS 3 Zrotation Yrotation Xrotation
										End Site
										{
											OFFSET -0.46635 -0.00000 -0.00000
										}
									}
								}
								JOINT RThumb
								{
									OFFSET 0 0 0
									CHANNELS 3 Zrotation Yrotation Xrotation
									End Site
									{
										OFFSET -0.47347 -0.00000 0.47347
									}
								}
							}
						}
					}
				}
			}
		}
	}
}
MOTION
Frames: 16
Frame Time: 0.125
0.00 0.00 0.00 0 0 0 0 0 0 -21 0 0 0 0 0 0 0 0 0 0 0 0 0 0 21 0 0 0 0 0 0 0 0 0 0 0 0 0 0 0 0 0 0 0 0 0 0 -16 0 0 21 0 0 11 0 0 0 -8 0 0 0 0 0 0 0 0 0 0 0 0 0 0 0 0 0 0 0 0 8 0 0 0 0 0 0 0 0 0 0 0 0 0 0 0 0 0
0.00 0.00 0.00 -5.9898 52.7925 1.8192 0.0000 0.0000 0.0000 -10.0399 -12.4623 -15.0991 9.9229 17.3663 59.2304 3.8814 1.4814 -37.8956 0.3951 -4.0361 -11.1784 0.0000 0.0000 0.0000 23.0717 4.0230 -21.5333 -3.4309 -11.3620 33.5106 -1.9483 13.2270 -25.3598 -0.7834 5.6505 -15.7736 -3.4249 -1.3869 10.0580 -0.3066 -2.2815 -0.9151 1.9567 -1.0002 -6.4919 -3.8439 -7.4912 -17.1629 5.5956 -11.6160 35.3755 0.9258 -4.4314 16.0823 0.0000 0.0000 0.0000 -78.2464 6.7110 24.5201 24.5309 -35.7207 -8.0144 -0.0000 0.0000 -25.2734 25.6030 13.3958 6.3348 -7.1250 0.0000 -0.0000 -1.6417 44.7668 0.0095 0.0000 0.0000 0.0000 75.2655 -16.3010 36.4518 -32.8146 43.1870 -13.2950 0.0000 0.0000 1.0100 -42.0632 11.9086 -10.5484 7.1250 -0.0000 -0.0000 -10.0907 -14.2934 -7.4049
0.00 0.00 0.00 -5.2880 45.8910 2.6491 0.0000 0.0000 0.0000 -8.4168 -16.5413 -18.9847 12.1050 18.4347 66.3212 1.4381 -0.0988 -22.6587 0.7705 -5.6051 -15.6428 0.0000 0.0000 0.0000 22.3209 6.4814 -19.9804 -3.0039 -10.7013 31.2790 -1.3766 13.3972 -21.6457 -0.6134 5.0126 -13.9445 -2.5325 0.0095 11.0584 -0.2061 -0.3382 -0.9422 1.2686 -0.0686 -7.2004 -3.3082 -7.1552 -17.3914 4.9942 -11.0607 35.0268 0.6781 -4.2320 15.8261 -0.0000 -0.0000 0.0000 -77.9062 12.0668 24.0710 27.6571 -38.7986 -9.9081 -0.0000 0.0000 -27.9505 25.7059 13.3358 6.3360 -7.1250 0.0000 -0.0000 -1.5383 44.7139 0.0109 -0.0000 -0.0000 0.0000 73.3642 -10.6749 34.6916 -28.8171 39.8576 -10.6433 0.0000 0.0000 1.3073 -41.7098 10.0135 -8.8093 7.1250 -0.0000 -0.0000 -10.1994 -16.8036 -6.9269
0.00 0.00 0.00 -2.3817 37.0898 5.3407 0.0000 0.0000 0.0000 -5.3976 -26.1579 -18.7118 7.8173 15.9832 51.9019 0.7865 -7.5511 -15.9001 0.4040 -4.0806 -11.3034 0.0000 0.0000 0.0000 17.8219 13.3492 -27.4341 -5.5733 -14.0017 43.2442 -1.2133 12.7654 -20.3420 -1.3088 7.2468 -20.4485 -3.3834 1.5373 14.6816 -0.9559 1.3953 -0.0178 0.5891 0.7976 -8.3346 -1.9705 -6.9164 -18.4914 5.1162 -11.0621 32.2504 0.4574 -4.1536 14.6748 0.0000 0.0000 0.0000 -76.4949 13.3657 23.8033 28.5413 -39.6098 -10.4670 -0.0000 0.0000 -31.1225 24.1465 14.0838 6.2257 -7.1250 0.0000 -0.0000 -3.0972 45.3301 -0.0253 0.0000 0.0000 0.0000 74.3179 -0.7153 29.2676 -26.1312 37.3380 -8.9671 0.0000 0.0000 1.1316 -41.2611 6.7260 -5.8667 7.1250 -0.0000 -0.0000 -10.4555 -21.1234 -6.0852
0.00 0.00 0.00 -0.3450 34.2351 6.6921 0.0000 0.0000 0.0000 -4.9885 -28.1485 -14.9281 4.0704 12.2535 36.6347 0.4889 -8.7810 -13.0169 0.0239 -0.9972 -2.7411 0.0000 0.0000 0.0000 13.7953 16.3835 -33.0664 -7.8771 -16.0281 52.1189 -1.1187 16.0119 -20.5550 -1.3550 7.3685 -20.8118 -5.4760 1.5283 16.2423 -0.9977 0.9502 0.7307 1.8083 0.6604 -8.4197 -1.9420 -6.3183 -19.3324 4.7696 -10.0024 30.9478 0.4804 -3.7925 14.1943 -0.0000 0.0000 0.0000 -76.5802 10.8060 22.7671 27.7246 -38.8615 -9.9504 -0.0000 0.0000 -31.5601 24.3010 13.6367 6.0767 -7.1250 0.0000 -0.0000 -2.8822 44.8663 0.0095 -0.0000 0.0000 0.0000 74.4956 2.6909 30.1225 -27.1183 38.2918 -9.5724 0.0000 -0.0000 -2.1212 -43.7503 7.1568 -6.8013 7.1250 -0.0000 -0.0000 -12.1143 -20.2187 -7.3450
0.00 0.00 0.00 2.1226 28.7223 8.7931 0.0000 0.0000 0.0000 -6.2629 -24.8786 -10.1769 2.8771 10.4934 30.5899 -0.0064 -17.2454 -12.0603 0.1394 2.4067 6.6309 0.0000 0.0000 0.0000 5.3970 18.6298 -46.4297 -12.6014 -18.6335 67.8827 0.0829 22.5651 -15.2903 -1.1158 6.7104 -18.8602 -6.3462 1.5795 16.8088 -1.7691 0.7699 1.1734 1.5075 0.5808 -8.2418 -0.8095 -5.3792 -20.5719 3.0900 -8.4701 30.7015 -0.1332 -3.2378 14.1188 -0.0000 -0.0000 0.0000 -74.4981 2.2202 23.7868 27.0888 -38.2637 -9.5541 -0.0000 0.0000 -31.6145 24.0888 12.7318 5.6273 -7.1250 0.0000 -0.0000 -2.9405 43.8614 0.0827 -0.0000 -0.0000 0.0000 74.0318 3.4633 33.5433 -32.2107 42.7145 -12.8835 0.0000 -0.0000 -6.5699 -44.9249 9.4136 -9.2651 7.1250 -0.0000 -0.0000 -12.4666 -16.9893 -8.4846
0.00 0.00 0.00 3.5889 22.3204 11.9297 0.0000 0.0000 0.0000 -3.7512 -14.1776 11.6911 1.1443 6.7928 19.1030 -1.2562 -24.6876 -7.3313 0.7634 5.5796 15.5693 0.0000 0.0000 0.0000 -5.6614 19.1732 -67.2994 -16.9896 -19.7813 81.1673 1.4151 24.0255 -4.5448 -0.5137 4.5938 -12.7535 -5.8582 0.2493 14.4411 -1.6766 -0.7771 0.0077 1.6819 -0.1712 -8.0688 -0.3008 -3.4355 -22.1579 -1.1032 -4.4115 31.6160 -1.2180 -2.0310 14.6088 -0.0000 0.0000 0.0000 -66.0761 -17.4345 29.4931 42.8588 -49.6753 -20.5930 -0.0000 0.0000 -30.6470 23.6470 9.0939 3.9589 -7.1250 0.0000 -0.0000 -2.8768 39.8755 0.3637 -0.0000 0.0000 0.0000 61.9234 1.3089 43.9475 -45.9865 51.2427 -23.0055 0.0000 -0.0000 -1.0152 -45.5618 12.8972 -12.8233 7.1250 -0.0000 -0.0000 -12.1557 -12.1698 -9.5424
0.00 0.00 0.00 3.1705 26.3742 12.1372 0.0000 0.0000 0.0000 3.4147 -9.5574 25.7814 0.0000 0.0000 0.0000 1.2699 2.3202 -22.2380 1.0073 6.3862 17.9092 0.0000 0.0000 0.0000 -0.0888 15.1199 -63.8005 -15.9315 -19.5984 78.0275 1.3364 25.3465 -7.4462 -0.6064 4.9844 -13.8642 -5.7679 -1.7164 12.9773 -1.0022 -3.2659 -1.0587 2.8213 -1.3447 -8.1729 -1.4549 -3.2471 -22.3155 -0.6217 -3.8620 32.9434 -0.7486 -1.8566 15.3078 0.0000 0.0000 0.0000 -62.7148 -19.6066 33.3215 59.4526 -56.1623 -33.8860 -0.0000 0.0000 -26.8116 24.9635 5.9543 2.7648 -7.1250 0.0000 -0.0000 -1.4835 36.5391 0.3088 0.0000 0.0000 0.0000 57.7737 1.5953 47.4280 -46.5819 51.5204 -23.4707 0.0000 -0.0000 -3.7205 -43.2808 9.7954 -9.1023 7.1250 -0.0000 -0.0000 -11.2943 -16.7983 -7.7005
0.00 0.00 0.00 2.5156 33.3209 9.1638 0.0000 0.0000 0.0000 5.7361 -8.7694 3.6535 5.9796 14.4086 44.9000 0.1683 7.8006 -14.1272 0.3884 -4.0022 -11.0828 0.0000 0.0000 0.0000 10.5938 11.5830 -50.4997 -12.6898 -18.6673 68.1592 -0.3715 21.4837 -17.8541 -1.1463 6.7986 -19.1201 -5.1760 -1.3671 14.9425 -1.5068 -2.8486 -0.5130 1.9344 -1.1638 -8.7886 -2.5337 -6.0716 -21.0935 1.9824 -8.6339 33.8207 -0.3861 -3.5821 15.6955 0.0000 0.0000 0.0000 -68.8421 -25.9900 43.7009 64.4974 -57.3939 -38.1073 -0.0000 0.0000 -24.1535 26.8261 3.8110 1.9251 -7.1250 0.0000 -0.0000 0.1627 34.2488 -0.0429 0.0000 0.0000 0.0000 58.4386 2.6901 41.8015 -40.7055 48.4823 -18.9658 0.0000 -0.0000 -2.7762 -44.8448 9.0129 -8.8561 7.1250 -0.0000 -0.0000 -12.4944 -17.5444 -8.3485
0.00 0.00 0.00 0.0403 36.0874 7.0892 0.0000 0.0000 0.0000 8.2369 -5.5150 -6.9249 10.7034 17.7869 61.8146 0.7033 -1.4420 -15.4175 1.0699 -6.5755 -18.4636 0.0000 0.0000 0.0000 15.6210 9.0803 -46.8734 -11.3744 -18.1135 63.9915 -0.6823 20.1172 -19.2491 -1.2426 7.0682 -19.9174 -3.4871 -1.4677 15.3101 -0.6421 -2.6270 -0.5157 1.8784 -1.1083 -9.0430 -2.8019 -6.6449 -20.6773 1.7810 -9.3488 34.8775 -0.5697 -3.9106 16.1404 -0.0000 -0.0000 0.0000 -73.6363 -26.6656 46.6813 61.7027 -56.7468 -35.7615 -0.0000 0.0000 -24.7366 27.7717 3.6196 1.9041 -7.1250 0.0000 -0.0000 0.9451 34.0678 -0.2535 -0.0000 -0.0000 0.0000 57.8305 4.2133 40.5647 -37.5196 46.5297 -16.6161 0.0000 -0.0000 -1.9804 -44.8876 8.7069 -8.5749 7.1250 -0.0000 -0.0000 -12.5848 -17.9489 -8.2970
0.00 0.00 0.00 -3.8283 51.0690 3.1608 0.0000 0.0000 0.0000 -3.7948 2.6636 -29.4437 12.4520 18.5752 67.4144 2.5724 -16.6700 -29.4799 1.4847 -7.6983 -21.8015 0.0000 0.0000 0.0000 22.8083 0.8995 -40.8878 -8.2715 -16.3153 53.5348 -2.3027 14.2442 -27.6101 -0.9453 6.1922 -17.3430 -4.6495 -2.3918 14.7623 0.5969 -3.9331 -0.7388 4.1264 -1.6594 -8.7364 -4.1607 -8.9530 -18.7586 5.7334 -13.9350 35.9547 0.4792 -5.3511 16.9814 0.0000 -0.0000 0.0000 -84.1633 -22.0562 55.4168 55.3406 -54.9348 -30.4946 -0.0000 0.0000 -24.0820 27.0481 3.4632 1.7666 -7.1250 0.0000 -0.0000 0.3534 33.8668 -0.0965 0.0000 -0.0000 0.0000 61.6919 2.6263 35.8615 -31.8863 42.4564 -12.6640 0.0000 -0.0000 -2.1392 -43.0218 5.8719 -5.4537 7.1250 -0.0000 -0.0000 -11.8444 -22.0271 -6.6780
0.00 0.00 0.00 -5.8915 53.9105 -5.8109 0.0000 0.0000 0.0000 -4.6969 2.0263 -33.7393 12.3716 18.5433 67.1618 4.8262 -3.8138 -40.9485 1.2213 -7.0095 -19.7434 0.0000 0.0000 0.0000 24.5727 7.7240 -44.1422 -9.6902 -17.2319 58.4479 -1.9714 -2.8989 -27.6956 -1.2336 7.0434 -19.8441 -10.7555 -2.8965 15.5139 -4.7407 -5.8418 1.6989 2.1270 -2.5611 -6.2990 -4.2582 -8.4617 -15.5151 7.9291 -14.4021 39.2666 1.5637 -5.2443 18.3783 0.0000 0.0000 0.0000 -54.7003 -18.4050 36.5888 29.3737 -40.3505 -11.0019 -0.0000 0.0000 -27.9094 25.3685 8.4378 3.9800 -7.1250 0.0000 -0.0000 -1.3151 39.2997 0.1848 0.0000 0.0000 0.0000 66.8183 -17.7458 31.5416 -46.3141 51.3962 -23.2612 0.0000 -0.0000 -4.4473 -39.8704 6.4390 -5.3513 7.1250 -0.0000 -0.0000 -9.5175 -21.6570 -5.4066
0.00 0.00 0.00 -2.6511 43.9821 -3.7306 0.0000 0.0000 0.0000 -7.3214 4.8999 -32.6388 10.6119 17.7399 61.5148 5.1904 2.4469 -44.1199 0.9009 -6.0490 -16.9266 0.0000 0.0000 0.0000 25.5971 8.5759 -41.5129 -6.7048 -15.0782 47.7489 -0.3780 -4.3966 -14.0717 -0.8231 5.7885 -16.1718 -11.5622 -2.1042 15.9470 -6.5018 -5.1308 1.6013 0.5715 -2.1767 -6.8299 -2.1492 -5.9621 -16.3702 6.8985 -10.9772 40.6560 1.4517 -3.6449 18.7913 0.0000 0.0000 0.0000 -44.9610 -15.5794 26.0053 26.0296 -37.2380 -8.9056 -0.0000 0.0000 -24.0858 22.5678 8.6702 3.5849 -7.1250 0.0000 -0.0000 -3.7686 39.3302 0.5274 0.0000 0.0000 0.0000 61.0547 -14.5576 35.7919 -51.1262 53.4397 -27.0761 0.0000 -0.0000 -6.4736 -42.1196 5.8153 -5.2345 7.1250 -0.0000 -0.0000 -11.2159 -22.2077 -6.2625
0.00 0.00 0.00 -2.9188 36.0915 -3.6805 0.0000 0.0000 0.0000 -7.3306 2.4634 -30.4048 8.2205 16.2790 53.3530 5.5962 9.0820 -48.1980 0.6535 -5.1708 -14.3962 0.0000 0.0000 0.0000 27.5533 6.7989 -38.6526 -3.7788 -11.8601 35.2388 0.1316 -7.9076 2.0378 -0.2283 3.0757 -8.4897 -10.0589 -0.3909 16.7933 -7.0232 -2.7580 1.9955 -1.2884 -1.0854 -7.1700 -0.9409 -4.9631 -17.0624 6.2807 -9.5914 40.5966 1.2144 -2.9826 18.6804 -0.0000 0.0000 0.0000 -39.1606 -15.5521 17.4150 23.9004 -35.0588 -7.6493 -0.0000 0.0000 -26.9240 23.0803 9.9902 4.2279 -7.1250 0.0000 -0.0000 -3.4767 40.7951 0.3610 -0.0000 0.0000 0.0000 57.8364 -8.9095 36.5761 -48.0972 52.1986 -24.6625 0.0000 -0.0000 -8.9320 -43.6156 3.7654 -3.5805 7.1250 -0.0000 -0.0000 -12.6548 -24.7776 -6.3346
0.00 0.00 0.00 -3.5385 33.4270 -3.8546 0.0000 0.0000 0.0000 -4.7340 -6.9090 -25.1273 5.6255 14.0554 43.4597 4.1308 8.7079 -41.9912 0.7913 -5.6785 -15.8543 0.0000 0.0000 0.0000 22.8805 11.2503 -36.0168 -4.2910 -12.5379 37.6624 0.0109 -5.3976 -7.3558 -0.2315 3.0966 -8.5478 -6.3809 0.8732 17.6919 -6.4512 -0.4482 2.5762 -3.2422 -0.0819 -7.1565 -1.9685 -5.5882 -16.4989 4.6876 -9.4115 40.7909 0.7008 -3.2887 18.5330 0.0000 0.0000 0.0000 -36.5082 -14.3388 15.1060 25.8976 -37.1074 -8.8258 -0.0000 0.0000 -27.3539 23.1385 9.8044 4.1620 -7.1250 0.0000 -0.0000 -3.4029 40.6000 0.3697 0.0000 0.0000 0.0000 55.5874 -0.3094 35.0867 -37.5315 46.5374 -16.6247 0.0000 -0.0000 -9.7512 -43.8690 1.7989 -1.7285 7.1250 -0.0000 -0.0000 -13.2071 -27.4068 -5.7890
0.00 0.00 0.00 -2.0989 34.9619 -3.2407 0.0000 0.0000 0.0000 -5.9643 -10.7586 -24.7926 5.4089 13.8300 42.5608 2.9252 4.1115 -33.9589 1.4815 -7.6904 -21.7775 0.0000 0.0000 0.0000 18.9959 11.1225 -33.0704 -5.3172 -13.7324 42.1758 -1.5277 -1.0873 -23.7808 -0.2793 3.3993 -9.3926 -5.1790 1.5622 17.9522 -5.5817 0.7460 2.8412 -3.2550 0.4718 -6.9910 -3.5518 -6.7953 -15.7318 3.2051 -10.0366 41.9996 0.1829 -3.9389 19.0795 0.0000 -0.0000 0.0000 -36.6708 -11.4984 16.2797 29.3623 -40.3405 -10.9944 -0.0000 0.0000 -24.1543 22.5128 8.4527 3.4865 -7.1250 0.0000 -0.0000 -3.7917 39.0920 0.5529 0.0000 -0.0000 0.0000 55.2089 6.2221 29.5185 -28.0395 39.1525 -10.1486 0.0000 -0.0000 -6.3276 -43.9191 1.5475 -1.4897 7.1250 -0.0000 -0.0000 -13.2917 -27.7436 -5.7193
